<?xml version="1.0" encoding="UTF-8" standalone="no"?>
<!-- Created with Inkscape (http://www.inkscape.org/) -->

<svg
   xmlns:dc="http://purl.org/dc/elements/1.1/"
   xmlns:cc="http://creativecommons.org/ns#"
   xmlns:rdf="http://www.w3.org/1999/02/22-rdf-syntax-ns#"
   xmlns:svg="http://www.w3.org/2000/svg"
   xmlns="http://www.w3.org/2000/svg"
   xmlns:sodipodi="http://sodipodi.sourceforge.net/DTD/sodipodi-0.dtd"
   xmlns:inkscape="http://www.inkscape.org/namespaces/inkscape"
   width="300"
   height="300"
   id="svg2"
   version="1.1"
   inkscape:version="0.48.2 r9819"
   sodipodi:docname="Pokéball.svg">
  <defs
     id="defs4" />
  <sodipodi:namedview
     id="base"
     pagecolor="#ffffff"
     bordercolor="#666666"
     borderopacity="1.0"
     inkscape:pageopacity="0.0"
     inkscape:pageshadow="2"
     inkscape:zoom="1.4"
     inkscape:cx="-63.79597"
     inkscape:cy="171.71125"
     inkscape:document-units="px"
     inkscape:current-layer="layer1"
     showgrid="false"
     inkscape:window-width="1366"
     inkscape:window-height="715"
     inkscape:window-x="-8"
     inkscape:window-y="-8"
     inkscape:window-maximized="1" />
  <metadata
     id="metadata7">
    <rdf:RDF>
      <cc:Work
         rdf:about="">
        <dc:format>image/svg+xml</dc:format>
        <dc:type
           rdf:resource="http://purl.org/dc/dcmitype/StillImage" />
        <dc:title />
      </cc:Work>
    </rdf:RDF>
  </metadata>
  <g
     inkscape:label="Calque 1"
     inkscape:groupmode="layer"
     id="layer1"
     transform="translate(0,-752.36218)">
    <path
       sodipodi:type="arc"
       style="fill:#ffcb05;fill-opacity:1;fill-rule:nonzero;stroke:none"
       id="path2985"
       sodipodi:cx="150"
       sodipodi:cy="143.21428"
       sodipodi:rx="131.42857"
       sodipodi:ry="132.5"
       d="m 281.42857,143.21428 c 0,73.17773 -58.84257,132.5 -131.42857,132.5 -72.585997,0 -131.428574,-59.32227 -131.428574,-132.5 0,-73.17773 58.842577,-132.500001 131.428574,-132.500001 72.586,0 131.42857,59.322271 131.42857,132.500001 z"
       transform="matrix(1.1413043,0,0,1.1320755,-21.195645,740.2328)" />
    <g
       id="g3000"
       style="fill:#ffffff;fill-opacity:1">
      <g
         transform="translate(-0.357145,0.17450565)"
         id="g3786"
         style="fill:#ffffff;fill-opacity:1">
        <path
           inkscape:connector-curvature="0"
           style="fill:#ffffff;fill-opacity:1;fill-rule:nonzero;stroke:none"
           d="m 37.5625,153.9375 c 2.06209,59.05058 49.449421,106.43791 108.5,108.5 62.09419,2.16838 114.20662,-46.40582 116.375,-108.5 l -71.625,0 C 188.82966,174.73263 171.31453,191 150,191 c -21.31453,0 -38.82966,-16.26737 -40.8125,-37.0625 l -71.625,0 z"
           id="path3755"
           transform="translate(0,752.36218)" />
        <path
           inkscape:connector-curvature="0"
           style="fill:#ffffff;fill-opacity:1;fill-rule:nonzero;stroke:none"
           d="m 38.276785,898.07562 c 2.06209,-59.05058 49.449421,-106.43795 108.500005,-108.49995 62.09419,-2.1684 114.20662,46.40577 116.375,108.49995 l -71.625,0 c -1.98284,-20.79513 -19.49797,-37.0625 -40.8125,-37.0625 -21.31453,0 -38.82967,16.26737 -40.81251,37.0625 l -71.624995,0 z"
           id="path3755-1" />
      </g>
      <path
         transform="matrix(1.9833334,0,0,2.0695652,-148.91666,586.01435)"
         d="m 167.85714,152.85715 c 0,9.07325 -7.67512,16.42857 -17.14286,16.42857 -9.46774,0 -17.14286,-7.35532 -17.14286,-16.42857 0,-9.07325 7.67512,-16.42857 17.14286,-16.42857 9.46774,0 17.14286,7.35532 17.14286,16.42857 z"
         sodipodi:ry="16.428572"
         sodipodi:rx="17.142857"
         sodipodi:cy="152.85715"
         sodipodi:cx="150.71428"
         id="path3790"
         style="fill:#ffffff;fill-opacity:1;fill-rule:nonzero;stroke:none"
         sodipodi:type="arc" />
    </g>
  </g>
</svg>
